<?xml version="1.0" standalone="no"?>
<!DOCTYPE svg PUBLIC "-//W3C//DTD SVG 20010904//EN"
 "http://www.w3.org/TR/2001/REC-SVG-20010904/DTD/svg10.dtd">
<svg version="1.0" xmlns="http://www.w3.org/2000/svg"
 width="276.000000pt" height="276.000000pt" viewBox="0 0 276.000000 276.000000"
 preserveAspectRatio="xMidYMid meet">

<g transform="translate(0.000000,276.000000) scale(0.100000,-0.100000)"
fill="#000000" stroke="none">
<path d="M755 2657 c-17 -36 -27 -80 -31 -140 -6 -75 -9 -87 -23 -81 -161 69
-255 76 -390 29 -47 -17 -86 -35 -88 -41 -2 -7 24 -13 73 -17 77 -7 193 -32
207 -46 4 -4 -23 -15 -60 -24 -110 -27 -205 -80 -289 -160 -84 -82 -95 -107
-36 -81 96 42 300 93 331 83 7 -3 -15 -26 -48 -52 -105 -83 -174 -200 -188
-321 l-6 -48 72 56 c75 58 231 156 249 156 5 0 1 -34 -10 -77 -13 -54 -18 -98
-14 -143 5 -62 32 -150 45 -150 4 0 20 39 35 88 31 96 102 252 115 252 4 0 12
-16 17 -36 l9 -37 49 62 c27 33 53 61 59 61 6 0 8 -145 4 -402 -6 -429 -15
-536 -72 -852 -15 -79 -22 -143 -17 -148 5 -5 53 -7 108 -6 l99 3 9 145 c6 94
5 253 -3 450 -11 305 -22 418 -62 667 -11 72 -19 139 -17 149 2 13 17 5 69
-40 36 -31 70 -56 74 -56 3 0 4 18 0 40 -4 25 -3 40 3 40 15 0 122 -146 173
-234 23 -42 47 -76 51 -76 8 0 11 52 9 160 -1 43 -10 73 -40 133 -26 50 -34
77 -26 77 26 0 191 -62 269 -101 43 -22 80 -38 83 -36 2 3 -5 28 -16 56 -39
104 -137 204 -261 267 l-55 28 33 9 c30 9 223 -2 342 -19 l35 -5 -35 31 c-46
41 -174 106 -247 124 -32 9 -94 18 -138 22 l-80 7 70 34 c39 18 100 43 138 55
93 30 91 35 -27 58 -112 23 -270 -22 -360 -100 l-34 -30 -7 49 c-11 80 -86
221 -117 221 -5 0 -20 -24 -33 -53z"/>
<path d="M1516 1882 c-10 -17 -26 -139 -26 -204 0 -61 9 -84 24 -59 7 10 36
214 36 248 0 22 -23 32 -34 15z"/>
<path d="M1340 1741 c0 -39 9 -61 26 -61 16 0 18 28 4 64 -13 35 -30 33 -30
-3z"/>
<path d="M1689 1638 c-54 -74 -76 -136 -40 -114 15 10 91 129 91 143 0 25 -20
13 -51 -29z"/>
<path d="M1030 1516 l0 -126 43 0 c92 0 232 -56 317 -127 122 -100 194 -236
215 -406 l6 -48 122 3 121 3 -2 55 c-4 78 -36 208 -71 283 -120 266 -393 462
-671 484 l-80 6 0 -127z"/>
<path d="M1859 1526 c-112 -90 -136 -113 -125 -123 13 -14 260 171 253 190 -8
24 -27 14 -128 -67z"/>
<path d="M1888 1318 c-56 -24 -67 -52 -15 -37 57 16 88 31 84 42 -6 18 -20 17
-69 -5z"/>
<path d="M1887 1153 c-16 -2 -26 -10 -24 -16 5 -17 87 -28 180 -25 74 3 82 5
82 23 0 19 -7 20 -105 21 -58 1 -118 -1 -133 -3z"/>
<path d="M1865 970 c7 -12 49 -34 83 -44 37 -12 25 12 -18 34 -42 21 -75 27
-65 10z"/>
<path d="M1330 730 l0 -190 40 0 40 0 0 190 0 190 -40 0 -40 0 0 -190z"/>
<path d="M2230 840 l0 -79 -50 6 c-62 7 -93 -7 -115 -52 -45 -97 30 -210 117
-177 16 6 51 8 79 5 l49 -6 0 192 0 191 -40 0 -40 0 0 -80z m-6 -162 c16 -26
-4 -72 -33 -76 -25 -4 -61 23 -61 45 0 8 5 23 11 34 13 25 67 23 83 -3z"/>
<path d="M1132 747 c-37 -40 -26 -81 33 -116 61 -35 44 -49 -32 -26 -16 5 -23
2 -28 -15 -9 -29 9 -47 55 -55 51 -9 104 16 120 56 15 34 6 49 -52 85 -46 29
-50 49 -8 41 19 -4 34 -1 45 9 31 31 12 44 -64 44 -37 0 -52 -5 -69 -23z"/>
<path d="M1487 749 c-15 -11 -31 -38 -37 -60 -23 -84 57 -179 129 -152 16 5
52 8 80 5 l51 -5 0 117 0 116 -34 0 c-19 0 -38 -5 -41 -10 -4 -7 -12 -7 -25 0
-32 17 -95 12 -123 -11z m136 -70 c13 -20 1 -68 -18 -76 -48 -18 -90 31 -65
77 14 25 67 25 83 -1z"/>
<path d="M1770 654 l0 -114 35 0 35 0 0 58 c0 64 16 105 43 110 35 7 47 -17
47 -94 l0 -74 40 0 40 0 0 69 c0 144 -13 158 -152 159 l-88 0 0 -114z"/>
<path d="M1650 455 l0 -65 -27 11 c-39 15 -71 3 -93 -34 -27 -44 -25 -83 5
-112 21 -22 33 -25 100 -25 l75 0 0 145 0 145 -30 0 -30 0 0 -65z m-16 -111
c20 -19 20 -38 1 -54 -18 -15 -45 -10 -59 12 -8 13 -6 22 8 37 23 25 30 26 50
5z"/>
<path d="M863 491 c-82 -52 -96 -167 -28 -231 32 -30 110 -38 152 -17 33 18
63 70 63 111 0 27 -1 27 -62 24 -47 -2 -63 -7 -63 -18 0 -8 11 -17 25 -20 32
-7 32 -31 1 -46 -67 -34 -121 65 -70 130 21 27 56 34 88 16 13 -6 24 -5 37 5
19 13 18 14 -2 36 -31 31 -100 36 -141 10z"/>
<path d="M1112 389 c-37 -24 -48 -57 -35 -102 17 -63 113 -79 164 -28 50 50
33 115 -37 141 -37 14 -55 12 -92 -11z m84 -50 c14 -15 16 -24 8 -37 -14 -22
-41 -27 -59 -12 -19 16 -19 35 1 54 20 21 27 20 50 -5z"/>
<path d="M1346 395 c-40 -21 -55 -44 -56 -83 0 -80 110 -114 171 -53 49 49 31
116 -38 142 -33 12 -43 11 -77 -6z m70 -56 c14 -15 16 -24 8 -37 -14 -22 -41
-27 -59 -12 -19 16 -19 35 1 54 20 21 27 20 50 -5z"/>
<path d="M1798 403 l-48 -4 0 -85 0 -85 28 3 c25 3 28 8 33 54 7 59 14 74 34
74 20 0 27 -15 34 -74 5 -42 9 -51 26 -51 17 0 20 8 23 54 2 30 1 65 -2 76 -5
21 -46 47 -69 43 -7 -1 -33 -3 -59 -5z"/>
<path d="M2008 394 c-54 -29 -63 -85 -22 -133 21 -25 33 -31 66 -31 47 0 78
15 78 37 0 12 -8 15 -38 10 -41 -5 -76 8 -67 24 4 5 28 9 55 9 27 0 52 5 55
11 14 22 -6 60 -40 75 -42 17 -53 17 -87 -2z m63 -39 c0 -5 -9 -11 -21 -13
-20 -3 -27 8 -13 22 10 9 34 3 34 -9z"/>
<path d="M2212 400 c-24 -10 -43 -47 -34 -68 2 -7 17 -19 33 -28 39 -19 38
-38 -1 -29 -23 5 -32 3 -36 -10 -10 -24 14 -36 66 -33 39 3 47 7 59 33 14 28
13 30 -24 62 l-38 33 27 0 c24 0 46 23 34 35 -10 11 -65 14 -86 5z"/>
<path d="M2372 398 c-12 -6 -25 -22 -29 -36 -5 -20 0 -30 26 -51 39 -32 39
-41 2 -41 -37 0 -48 -15 -22 -29 46 -25 121 -1 121 38 0 18 -30 50 -65 69 -19
11 -18 11 6 12 15 0 32 6 38 14 10 12 8 17 -8 25 -24 13 -39 13 -69 -1z"/>
</g>
</svg>
