<?xml version="1.0" standalone="no"?>
<!DOCTYPE svg PUBLIC "-//W3C//DTD SVG 20010904//EN"
 "http://www.w3.org/TR/2001/REC-SVG-20010904/DTD/svg10.dtd">
<svg version="1.0" xmlns="http://www.w3.org/2000/svg"
 width="276.000000pt" height="276.000000pt" viewBox="0 0 276.000000 276.000000"
 preserveAspectRatio="xMidYMid meet">

<g transform="translate(0.000000,276.000000) scale(0.100000,-0.100000)"
fill="#000000" stroke="none">
<path d="M755 2657 c-17 -36 -27 -80 -31 -140 -6 -75 -9 -87 -23 -81 -161 69
-255 76 -390 29 -47 -17 -86 -35 -88 -41 -2 -7 24 -13 73 -17 77 -7 193 -32
207 -46 4 -4 -23 -15 -60 -24 -110 -27 -205 -80 -289 -160 -84 -82 -95 -107
-36 -81 96 42 300 93 331 83 7 -3 -15 -26 -48 -52 -105 -83 -174 -200 -188
-321 l-6 -48 72 56 c75 58 231 156 249 156 5 0 1 -34 -10 -77 -13 -54 -18 -98
-14 -143 5 -62 32 -150 45 -150 4 0 20 39 35 88 31 96 102 252 115 252 4 0 12
-16 17 -36 l9 -37 49 62 c27 33 53 61 59 61 6 0 8 -145 4 -402 -6 -429 -15
-536 -72 -852 -15 -79 -22 -143 -17 -148 5 -5 53 -7 108 -6 l99 3 9 145 c6 94
5 253 -3 450 -11 305 -22 418 -62 667 -11 72 -19 139 -17 149 2 13 17 5 69
-40 36 -31 70 -56 74 -56 3 0 4 18 0 40 -4 25 -3 40 3 40 15 0 122 -146 173
-234 23 -42 47 -76 51 -76 8 0 11 52 9 160 -1 43 -10 73 -40 133 -26 50 -34
77 -26 77 26 0 191 -62 269 -101 43 -22 80 -38 83 -36 2 3 -5 28 -16 56 -39
104 -137 204 -261 267 l-55 28 33 9 c30 9 223 -2 342 -19 l35 -5 -35 31 c-46
41 -174 106 -247 124 -32 9 -94 18 -138 22 l-80 7 70 34 c39 18 100 43 138 55
93 30 91 35 -27 58 -112 23 -270 -22 -360 -100 l-34 -30 -7 49 c-11 80 -86
221 -117 221 -5 0 -20 -24 -33 -53z"/>
<path d="M1692 1838 c-18 -23 -49 -281 -37 -317 8 -28 31 -27 38 2 12 48 39
298 33 312 -7 18 -20 19 -34 3z"/>
<path d="M1473 1644 c5 -49 18 -70 36 -60 25 16 4 106 -25 106 -14 0 -16 -8
-11 -46z"/>
<path d="M1010 1437 l0 -167 44 0 c118 0 289 -59 404 -140 179 -126 296 -322
324 -546 l12 -94 163 0 163 0 0 49 c0 66 -26 212 -52 291 -138 426 -530 739
-960 767 l-98 6 0 -166z"/>
<path d="M1903 1533 c-44 -63 -73 -116 -73 -133 0 -17 21 -11 41 13 28 32 99
151 99 165 0 28 -30 8 -67 -45z"/>
<path d="M2160 1433 c-141 -109 -212 -175 -202 -185 6 -6 17 -6 30 1 29 16
276 202 284 214 7 11 -8 37 -21 37 -3 -1 -44 -31 -91 -67z"/>
<path d="M2144 1136 c-93 -43 -80 -68 17 -33 41 14 65 28 67 40 5 24 -22 22
-84 -7z"/>
<path d="M2133 933 c-13 -2 -23 -9 -23 -14 0 -21 62 -31 195 -33 l140 -1 0 25
0 25 -145 1 c-80 1 -155 0 -167 -3z"/>
<path d="M2120 710 c0 -11 93 -60 115 -60 33 0 12 29 -36 49 -56 23 -79 26
-79 11z"/>
</g>
</svg>
